# xmcd
#
# Track frame offsets: 
#        150
#        15150
#        29717
#        44130
#        57515
#        72812
#        101202
#        112645
#        126207
#        138672
#
# Disc length: 2059 seconds
#
# Revision: 1
# Processed by: cddbd v1.5.2PL0 Copyright (c) Steve Scherf et al.
# Submitted via: ExactAudioCopyFreeDBPlugin 1.0
#
DISCID=8e08090a
DTITLE=横浜銀蝿 - 完全復刻盤スーパースペシャル上（DISC２）
DYEAR=1998
DGENRE=Rock and Roll
TTITLE0=ジェームスディーンのように
TTITLE1=羯徒毘?薫'狼琉
TTITLE2=だからいつものRock'n Roll
TTITLE3=壱から拾までRock'n Roll
TTITLE4=JohnnyはRockがお好き
TTITLE5=D.J. Rock'n Roll
TTITLE6=ツッパリHigh School Rock'n Roll（試験編）
TTITLE7=I Love 横浜
TTITLE8=ヒップフリフリRock'n Roll
TTITLE9=気ままなOne Way Night
EXTD=YEAR: 1998
EXTT0=
EXTT1=
EXTT2=
EXTT3=
EXTT4=
EXTT5=
EXTT6=
EXTT7=
EXTT8=
EXTT9=
PLAYORDER=
